<svg xmlns="http://www.w3.org/2000/svg" viewBox="0 0 640 512">
  <path fill="#4ade80" d="M32 224H64V416H32A31.96166 31.96166 0 0 1 0 384V256A31.96166 31.96166 0 0 1 32 224zm512-48V448a64.06328 64.06328 0 0 1-64 64H160a64.06328 64.06328 0 0 1-64-64V176a79.974 79.974 0 0 1 80-80H288V32a32 32 0 0 1 64 0V96H464A79.974 79.974 0 0 1 544 176zM264 256a40 40 0 1 0-40 40A39.997 39.997 0 0 0 264 256zm152 40a40 40 0 1 0-40-40A39.997 39.997 0 0 0 416 296zM576 224h32a32 32 0 0 1 32 32v128a32 32 0 0 1-32 32H576z"/>
</svg>